<svg version="1.0" xmlns="http://www.w3.org/2000/svg"
 width="64.000000pt" height="64.000000pt" viewBox="0 0 64.000000 64.000000"
 preserveAspectRatio="xMidYMid meet">
    <g transform="translate(0.000000,64.000000) scale(0.100000,-0.100000)"
    fill="" stroke="none">
    <path d="M242 585 c-117 -36 -193 -138 -193 -259 0 -42 -4 -56 -15 -56 -22 0
    -17 -13 16 -45 34 -32 40 -29 64 28 15 37 15 38 -4 32 -18 -6 -20 -2 -20 42 1
    188 228 292 374 171 48 -39 86 -118 86 -178 0 -49 -29 -122 -62 -157 -19 -21
    -22 -21 -54 -5 -41 19 -43 39 -9 90 24 36 24 42 16 112 -6 43 -16 79 -24 85
    -8 5 -17 20 -21 33 -8 25 -34 28 -100 12 -63 -14 -86 -45 -97 -131 -8 -69 -8
    -75 16 -111 37 -56 33 -71 -25 -98 -28 -13 -49 -28 -47 -34 6 -18 68 -55 111
    -67 82 -22 192 7 259 70 16 14 41 49 55 76 22 41 27 64 27 125 0 66 -4 82 -31
    130 -37 66 -97 114 -166 135 -62 18 -99 18 -156 0z m148 -191 c5 -5 13 -29 19
    -53 10 -48 2 -68 -48 -123 -31 -35 -51 -35 -82 0 -50 54 -58 74 -48 126 5 26
    11 50 13 54 6 10 135 7 146 -4z m-70 -234 c14 0 31 5 38 12 9 9 12 5 12 -20 0
    -25 -5 -33 -25 -38 -14 -3 -36 -3 -50 0 -20 5 -25 13 -25 38 0 25 3 29 12 20
    7 -7 24 -12 38 -12z" style="fill: #fafafa"/>
    </g>
</svg>
